<svg width="2252" height="402" viewBox="0 0 2252 402" fill="none" xmlns="http://www.w3.org/2000/svg">
<path d="M117.883 41.959C131.229 41.3079 140.751 40.9824 146.447 40.9824C205.855 40.9824 235.559 71.0117 235.559 131.07C235.559 156.949 229.781 177.376 218.225 192.35C206.669 207.161 189.416 214.566 166.467 214.566C149.214 214.566 132.531 211.555 116.418 205.533C116.418 155.24 116.906 100.715 117.883 41.959ZM60.0215 350.064C61.9746 309.374 62.9512 258.186 62.9512 196.5C62.9512 144.091 62.1374 98.7624 60.5098 60.5137C60.1842 54.4915 42.0365 49.6901 6.06641 46.1094C3.29948 35.3672 3.625 24.8691 7.04297 14.6152C24.2956 15.2663 42.8503 15.6732 62.707 15.8359C82.5638 15.9987 105.35 15.9173 131.066 15.5918C156.945 15.2663 175.907 15.1035 187.951 15.1035C233.036 15.1035 267.378 25.6829 290.979 46.8418C314.579 68.0007 326.379 96.2396 326.379 131.559C326.379 167.203 313.277 195.117 287.072 215.299C261.031 235.481 227.176 245.572 185.51 245.572C173.791 245.572 163.293 244.514 154.016 242.398C154.016 288.46 154.504 324.511 155.48 350.553C155.48 351.529 156.62 352.831 158.898 354.459C161.34 356.087 164.839 357.633 169.396 359.098C174.117 360.562 181.685 362.027 192.102 363.492C202.681 364.794 208.785 365.608 210.412 365.934C213.179 375.048 212.691 385.058 208.947 395.963C148.889 394.661 112.43 394.01 99.5723 394.01C90.1322 394.01 59.1263 394.661 6.55469 395.963C2.48568 384.732 2.48568 374.234 6.55469 364.469C41.8737 360.888 59.696 356.087 60.0215 350.064ZM225.549 131.07C225.549 80.6146 202.03 54.0846 154.992 51.4805C154.341 87.4505 154.016 136.767 154.016 199.43C160.038 202.197 166.548 203.906 173.547 204.557C190.474 202.929 203.332 195.605 212.121 182.584C221.073 169.563 225.549 152.392 225.549 131.07ZM70.0312 350.553C69.7057 362.597 50.8255 370.41 13.3906 373.99C12.0885 376.594 12.0885 380.419 13.3906 385.465C41.0599 384.488 69.7871 384 99.5723 384C134.24 384 167.525 384.488 199.426 385.465C200.728 382.861 200.728 379.036 199.426 373.99C145.389 370.735 118.208 362.923 117.883 350.553C116.906 304.492 116.418 261.604 116.418 221.891C136.763 231.005 159.794 235.562 185.51 235.562C218.55 235.562 244.022 225.878 261.926 206.51C279.992 187.141 289.025 162.158 289.025 131.559C289.025 99.4948 278.853 73.7786 258.508 54.4102C238.163 34.8789 208.785 25.1133 170.373 25.1133C158.492 25.1133 141.809 25.3574 120.324 25.8457C98.8398 26.334 79.5527 26.5781 62.4629 26.5781C45.5358 26.5781 29.3411 26.0898 13.8789 25.1133C12.5768 28.043 12.5768 31.8678 13.8789 36.5879C21.2031 37.2389 27.2253 37.89 31.9453 38.541C36.6654 39.1921 42.4434 40.3314 49.2793 41.959C56.1152 43.5866 61.2422 45.9466 64.6602 49.0391C68.2409 51.9688 70.194 55.6309 70.5195 60.0254C72.1471 98.2741 72.9609 143.766 72.9609 196.5C72.9609 248.095 71.9844 299.446 70.0312 350.553ZM474.572 177.945C491.337 177.945 504.602 186.002 514.367 202.115C524.296 218.066 529.26 242.887 529.26 276.578C529.26 310.27 524.296 335.09 514.367 351.041C504.602 366.992 491.337 374.967 474.572 374.967C465.295 374.967 456.831 373.014 449.182 369.107C441.695 365.201 435.266 359.179 429.895 351.041C424.686 342.903 420.617 332.73 417.688 320.523C414.758 308.154 413.293 293.505 413.293 276.578C413.293 259.814 414.758 245.247 417.688 232.877C420.617 220.344 424.686 210.09 429.895 202.115C435.266 193.977 441.695 187.955 449.182 184.049C456.831 179.98 465.295 177.945 474.572 177.945ZM474.572 391.08C489.709 391.08 503.299 388.232 515.344 382.535C527.388 376.839 537.642 368.945 546.105 358.854C554.732 348.6 561.324 336.474 565.881 322.477C570.438 308.479 572.717 293.18 572.717 276.578C572.717 259.977 570.438 244.677 565.881 230.68C561.324 216.682 554.732 204.638 546.105 194.547C537.642 184.293 527.388 176.318 515.344 170.621C503.299 164.924 489.709 162.076 474.572 162.076C458.459 162.076 443.892 164.924 430.871 170.621C417.85 176.318 406.783 184.212 397.668 194.303C388.716 204.394 381.799 216.52 376.916 230.68C372.033 244.677 369.592 259.977 369.592 276.578C369.592 293.342 372.033 308.723 376.916 322.721C381.799 336.718 388.716 348.844 397.668 359.098C406.783 369.189 417.85 377.083 430.871 382.779C443.892 388.313 458.459 391.08 474.572 391.08ZM483.117 152.066C502.811 152.066 520.308 155.077 535.607 161.1C551.07 167.122 564.09 175.667 574.67 186.734C585.249 197.639 593.306 210.742 598.84 226.041C604.374 241.34 607.141 258.186 607.141 276.578C607.141 294.807 604.374 311.572 598.84 326.871C593.306 342.171 585.249 355.354 574.67 366.422C564.253 377.327 551.314 385.79 535.852 391.812C520.389 397.997 502.811 401.09 483.117 401.09C463.586 401.09 446.089 397.997 430.627 391.812C415.327 385.79 402.388 377.327 391.809 366.422C381.392 355.354 373.417 342.252 367.883 327.115C362.349 311.816 359.582 294.97 359.582 276.578C359.582 258.186 362.349 241.34 367.883 226.041C373.417 210.742 381.473 197.639 392.053 186.734C402.632 175.667 415.572 167.122 430.871 161.1C446.171 155.077 463.586 152.066 483.117 152.066ZM447.717 276.578C447.717 329.15 459.517 358.284 483.117 363.98C507.206 358.284 519.25 329.15 519.25 276.578C519.25 224.495 507.206 195.279 483.117 188.932C459.517 195.279 447.717 224.495 447.717 276.578ZM739.953 246.549C744.022 231.575 752.404 217.008 765.1 202.848C777.795 188.688 790.734 181.607 803.918 181.607C819.38 181.607 827.111 186.572 827.111 196.5C827.111 205.452 822.88 211.148 814.416 213.59C812.137 216.845 812.137 220.67 814.416 225.064C823.205 225.064 830.367 222.379 835.9 217.008C841.597 211.637 844.445 204.15 844.445 194.547C844.445 184.456 841.353 176.562 835.168 170.865C829.146 165.006 821.252 162.076 811.486 162.076C798.791 162.076 786.014 167.203 773.156 177.457C760.461 187.548 749.393 198.86 739.953 211.393V169.4C738.651 166.796 735.884 164.68 731.652 163.053C709.842 173.307 684.615 179.98 655.969 183.072C654.992 186.979 654.992 190.803 655.969 194.547C677.941 195.523 693.648 198.86 703.088 204.557C704.39 265.266 704.227 313.932 702.6 350.553C702.274 362.597 688.439 370.41 661.096 373.99C658.654 378.385 658.654 382.21 661.096 385.465C703.739 383.512 750.207 383.512 800.5 385.465C802.779 382.21 802.779 378.385 800.5 373.99C761.926 370.41 742.476 362.597 742.15 350.553C740.686 317.512 739.953 282.844 739.953 246.549ZM776.574 350.064C776.9 356.412 787.886 361.376 809.533 364.957C814.904 375.699 814.579 386.035 808.557 395.963C739.546 393.684 687.382 393.196 652.062 394.498C646.04 384.895 645.715 375.048 651.086 364.957C678.43 361.376 692.264 356.412 692.59 350.064C694.543 303.678 694.706 257.128 693.078 210.416C682.336 207.161 667.525 205.045 648.645 204.068C644.901 194.303 644.901 183.967 648.645 173.062C675.826 171.435 704.634 164.111 735.07 151.09C752.648 153.043 765.832 158.333 774.621 166.959C788.293 157.031 800.581 152.066 811.486 152.066C824.182 152.066 834.517 155.81 842.492 163.297C850.467 170.784 854.455 181.201 854.455 194.547C854.455 207.242 850.712 217.171 843.225 224.332C835.738 231.493 826.135 235.074 814.416 235.074C803.511 235.074 794.396 231.412 787.072 224.088C780.399 233.04 776.249 241.178 774.621 248.502C774.621 283.821 775.272 317.675 776.574 350.064ZM976.281 191.617H1072.23C1074.51 185.27 1074.51 179.41 1072.23 174.039H976.281V120.572C972.212 118.782 968.143 118.782 964.074 120.572C958.052 131.803 951.379 141.65 944.055 150.113C936.73 158.414 930.546 164.273 925.5 167.691C920.617 170.947 913.537 175.178 904.26 180.387C903.12 183.805 903.12 187.548 904.26 191.617H934.045V319.547C934.045 367.236 953.739 391.08 993.127 391.08C1009.89 391.08 1025.35 386.767 1039.51 378.141C1053.67 369.352 1064.25 358.609 1071.25 345.914C1069.79 342.333 1067.1 340.38 1063.2 340.055C1047.9 353.727 1033.08 360.562 1018.76 360.562C990.441 360.562 976.281 347.704 976.281 321.988V191.617ZM1060.27 329.557C1070.52 330.859 1077.84 336.474 1082.24 346.402C1073.77 361.865 1061.49 374.804 1045.37 385.221C1029.26 395.8 1011.84 401.09 993.127 401.09C947.229 401.09 924.279 373.909 924.279 319.547V201.383H894.25C891.809 192.757 891.809 183.805 894.25 174.527C904.178 168.831 911.747 164.192 916.955 160.611C922.163 156.868 928.674 150.846 936.486 142.545C944.299 134.244 951.216 124.234 957.238 112.516C972.538 106.168 990.36 106.493 1010.71 113.492V164.029H1081.75C1086.96 176.074 1086.96 188.525 1081.75 201.383H1010.71V321.988C1010.71 337.613 1016.32 346.809 1027.55 349.576C1037.32 347.46 1048.22 340.787 1060.27 329.557ZM1243.37 350.064C1243.7 356.412 1254.68 361.376 1276.33 364.957C1281.7 375.699 1281.38 386.035 1275.35 395.963C1206.34 393.684 1154.18 393.196 1118.86 394.498C1112.84 384.895 1112.51 375.048 1117.88 364.957C1145.23 361.376 1159.06 356.412 1159.39 350.064C1160.04 333.951 1160.36 284.391 1160.36 201.383H1130.33C1124.96 188.525 1124.96 176.074 1130.33 164.029H1160.36V148.404C1160.36 107.877 1170.86 73.5345 1191.86 45.377C1212.85 17.0566 1242.8 2.89648 1281.7 2.89648C1301.4 2.89648 1318 8.10482 1331.51 18.5215C1345.01 28.7754 1351.77 42.4473 1351.77 59.5371C1351.77 70.4421 1348.03 79.9635 1340.54 88.1016C1333.05 96.0768 1323.29 100.064 1311.24 100.064C1301.31 100.064 1293.58 97.5417 1288.05 92.4961C1282.51 87.4505 1279.75 81.1029 1279.75 73.4531C1279.75 59.7812 1284.63 50.9922 1294.4 47.0859C1290.33 44.6445 1284.47 43.4238 1276.82 43.4238C1266.56 45.2142 1258.1 50.4225 1251.43 59.0488C1244.75 67.6751 1241.42 78.4987 1241.42 91.5195V164.029H1291.22C1296.59 177.05 1296.59 189.501 1291.22 201.383H1241.42C1241.42 277.392 1242.07 326.952 1243.37 350.064ZM1276.82 29.0195C1293.09 29.0195 1304.81 31.9492 1311.97 37.8086C1319.14 43.668 1322.72 50.5853 1322.72 58.5605C1322.72 70.1165 1318.57 77.278 1310.27 80.0449C1307.99 83.3001 1307.99 87.125 1310.27 91.5195C1318.89 91.5195 1326.3 88.2643 1332.48 81.7539C1338.67 75.2435 1341.76 67.8379 1341.76 59.5371C1341.76 45.5397 1335.98 34.3092 1324.43 25.8457C1313.03 17.2194 1298.79 12.9062 1281.7 12.9062C1246.06 12.9062 1218.55 26.0085 1199.18 52.2129C1179.98 78.4173 1170.37 110.481 1170.37 148.404V174.039H1137.41C1134.97 179.41 1134.97 185.27 1137.41 191.617H1170.37C1170.37 281.461 1170.05 334.439 1169.4 350.553C1169.07 362.597 1155.24 370.41 1127.89 373.99C1125.45 378.385 1125.45 382.21 1127.89 385.465C1170.54 383.512 1217 383.512 1267.3 385.465C1269.58 382.21 1269.58 378.385 1267.3 373.99C1228.72 370.41 1209.19 362.597 1208.7 350.553C1207.4 325.162 1206.75 272.184 1206.75 191.617H1281.7C1284.14 186.246 1284.14 180.387 1281.7 174.039H1206.75V102.994C1206.75 83.3001 1213.59 66.0475 1227.26 51.2363C1240.93 36.4251 1257.45 29.0195 1276.82 29.0195ZM1444.79 177.945C1461.55 177.945 1474.82 186.002 1484.58 202.115C1494.51 218.066 1499.47 242.887 1499.47 276.578C1499.47 310.27 1494.51 335.09 1484.58 351.041C1474.82 366.992 1461.55 374.967 1444.79 374.967C1435.51 374.967 1427.05 373.014 1419.4 369.107C1411.91 365.201 1405.48 359.179 1400.11 351.041C1394.9 342.903 1390.83 332.73 1387.9 320.523C1384.97 308.154 1383.51 293.505 1383.51 276.578C1383.51 259.814 1384.97 245.247 1387.9 232.877C1390.83 220.344 1394.9 210.09 1400.11 202.115C1405.48 193.977 1411.91 187.955 1419.4 184.049C1427.05 179.98 1435.51 177.945 1444.79 177.945ZM1444.79 391.08C1459.92 391.08 1473.51 388.232 1485.56 382.535C1497.6 376.839 1507.86 368.945 1516.32 358.854C1524.95 348.6 1531.54 336.474 1536.1 322.477C1540.65 308.479 1542.93 293.18 1542.93 276.578C1542.93 259.977 1540.65 244.677 1536.1 230.68C1531.54 216.682 1524.95 204.638 1516.32 194.547C1507.86 184.293 1497.6 176.318 1485.56 170.621C1473.51 164.924 1459.92 162.076 1444.79 162.076C1428.67 162.076 1414.11 164.924 1401.09 170.621C1388.07 176.318 1377 184.212 1367.88 194.303C1358.93 204.394 1352.01 216.52 1347.13 230.68C1342.25 244.677 1339.81 259.977 1339.81 276.578C1339.81 293.342 1342.25 308.723 1347.13 322.721C1352.01 336.718 1358.93 348.844 1367.88 359.098C1377 369.189 1388.07 377.083 1401.09 382.779C1414.11 388.313 1428.67 391.08 1444.79 391.08ZM1453.33 152.066C1473.03 152.066 1490.52 155.077 1505.82 161.1C1521.28 167.122 1534.31 175.667 1544.88 186.734C1555.46 197.639 1563.52 210.742 1569.05 226.041C1574.59 241.34 1577.36 258.186 1577.36 276.578C1577.36 294.807 1574.59 311.572 1569.05 326.871C1563.52 342.171 1555.46 355.354 1544.88 366.422C1534.47 377.327 1521.53 385.79 1506.07 391.812C1490.6 397.997 1473.03 401.09 1453.33 401.09C1433.8 401.09 1416.3 397.997 1400.84 391.812C1385.54 385.79 1372.6 377.327 1362.02 366.422C1351.61 355.354 1343.63 342.252 1338.1 327.115C1332.56 311.816 1329.8 294.97 1329.8 276.578C1329.8 258.186 1332.56 241.34 1338.1 226.041C1343.63 210.742 1351.69 197.639 1362.27 186.734C1372.85 175.667 1385.79 167.122 1401.09 161.1C1416.39 155.077 1433.8 152.066 1453.33 152.066ZM1417.93 276.578C1417.93 329.15 1429.73 358.284 1453.33 363.98C1477.42 358.284 1489.46 329.15 1489.46 276.578C1489.46 224.495 1477.42 195.279 1453.33 188.932C1429.73 195.279 1417.93 224.495 1417.93 276.578ZM1764.86 372.77C1726.12 369.189 1706.59 361.376 1706.26 349.332C1704.63 259.163 1703.98 149.218 1704.31 19.498C1703.01 16.8939 1700.16 14.6966 1695.76 12.9062C1673.14 23.6484 1649.62 30.3216 1625.21 32.9258C1624.23 36.9948 1624.23 40.8197 1625.21 44.4004C1643.6 45.5397 1657.6 48.8763 1667.2 54.4102C1668.5 176.806 1668.34 275.113 1666.71 349.332C1666.39 361.376 1652.55 369.189 1625.21 372.77C1623.58 376.839 1623.58 380.826 1625.21 384.732C1662.97 383.43 1709.52 383.43 1764.86 384.732C1766.48 380.826 1766.48 376.839 1764.86 372.77ZM1773.64 363.736C1776.41 373.827 1776.41 383.674 1773.64 393.277C1710.98 391.975 1658.49 391.975 1616.17 393.277C1613.57 383.674 1613.57 373.827 1616.17 363.736C1642.87 361.132 1656.38 356.168 1656.7 348.844C1658.65 253.303 1658.82 157.193 1657.19 60.5137C1646.28 57.0957 1632.61 54.8984 1616.17 53.9219C1612.59 44.319 1612.59 33.9837 1616.17 22.916C1640.91 21.6139 1668.58 14.2897 1699.18 0.943359C1716.92 2.24544 1730.11 7.61654 1738.73 17.0566C1738.08 162.076 1738.73 272.672 1740.69 348.844C1741.01 356.168 1752 361.132 1773.64 363.736ZM1879.11 40.9824C1915.9 40.9824 1934.29 54.3288 1934.29 81.0215C1934.29 107.714 1915.9 121.061 1879.11 121.061C1873.58 121.061 1868.37 120.003 1863.49 117.887C1858.77 115.771 1854.62 112.923 1851.04 109.342C1847.46 105.598 1844.61 101.285 1842.49 96.4023C1840.38 91.5195 1839.32 86.3926 1839.32 81.0215C1839.32 75.6504 1840.38 70.5234 1842.49 65.6406C1844.61 60.7578 1847.46 56.526 1851.04 52.9453C1854.62 49.2018 1858.77 46.2721 1863.49 44.1562C1868.37 42.0404 1873.58 40.9824 1879.11 40.9824ZM1856.65 60.0254C1851.77 65.722 1849.33 72.7207 1849.33 81.0215C1849.33 85.2533 1849.98 89.2409 1851.28 92.9844C1852.75 96.5651 1854.7 99.7389 1857.14 102.506C1859.58 105.11 1862.35 107.226 1865.44 108.854C1868.7 110.318 1872.11 111.051 1875.7 111.051C1879.11 111.051 1882.45 110.318 1885.71 108.854C1888.96 107.226 1891.81 105.11 1894.25 102.506C1896.69 99.7389 1898.64 96.5651 1900.11 92.9844C1901.57 89.2409 1902.31 85.2533 1902.31 81.0215C1902.31 76.7897 1901.57 72.8835 1900.11 69.3027C1898.64 65.5592 1896.69 62.3854 1894.25 59.7812C1891.81 57.0143 1888.96 54.8984 1885.71 53.4336C1882.45 51.806 1879.11 50.9922 1875.7 50.9922C1872.28 50.9922 1868.94 51.7246 1865.69 53.1895C1862.43 54.6543 1859.42 56.9329 1856.65 60.0254ZM1955.29 372.77C1916.55 369.189 1897.02 361.376 1896.69 349.332C1895.06 300.504 1894.41 240.527 1894.74 169.4C1893.44 166.796 1890.59 164.68 1886.19 163.053C1863.57 173.632 1840.05 180.305 1815.64 183.072C1814.66 186.979 1814.66 190.803 1815.64 194.547C1834.03 195.523 1848.03 198.86 1857.63 204.557C1859.09 265.266 1858.93 313.525 1857.14 349.332C1856.82 361.376 1842.98 369.189 1815.64 372.77C1814.01 376.839 1814.01 380.826 1815.64 384.732C1862.35 383.756 1908.9 383.756 1955.29 384.732C1956.91 380.826 1956.91 376.839 1955.29 372.77ZM1964.32 363.736C1966.92 373.827 1966.92 383.674 1964.32 393.277C1911.91 391.65 1859.42 391.65 1806.85 393.277C1804.08 383.674 1804.08 373.827 1806.85 363.736C1833.38 361.132 1846.81 356.168 1847.13 348.844C1849.25 303.271 1849.41 257.128 1847.62 210.416C1836.71 207.161 1823.12 205.045 1806.85 204.068C1803.1 194.303 1803.1 183.967 1806.85 173.062C1831.42 171.76 1859.09 164.436 1889.86 151.09C1907.43 152.392 1920.54 157.682 1929.16 166.959C1928.51 247.037 1929.16 307.665 1931.12 348.844C1931.6 356.168 1942.67 361.132 1964.32 363.736ZM2119.1 177.945C2135.87 177.945 2149.13 186.002 2158.9 202.115C2168.83 218.066 2173.79 242.887 2173.79 276.578C2173.79 310.27 2168.83 335.09 2158.9 351.041C2149.13 366.992 2135.87 374.967 2119.1 374.967C2109.83 374.967 2101.36 373.014 2093.71 369.107C2086.23 365.201 2079.8 359.179 2074.43 351.041C2069.22 342.903 2065.15 332.73 2062.22 320.523C2059.29 308.154 2057.82 293.505 2057.82 276.578C2057.82 259.814 2059.29 245.247 2062.22 232.877C2065.15 220.344 2069.22 210.09 2074.43 202.115C2079.8 193.977 2086.23 187.955 2093.71 184.049C2101.36 179.98 2109.83 177.945 2119.1 177.945ZM2119.1 391.08C2134.24 391.08 2147.83 388.232 2159.88 382.535C2171.92 376.839 2182.17 368.945 2190.64 358.854C2199.26 348.6 2205.85 336.474 2210.41 322.477C2214.97 308.479 2217.25 293.18 2217.25 276.578C2217.25 259.977 2214.97 244.677 2210.41 230.68C2205.85 216.682 2199.26 204.638 2190.64 194.547C2182.17 184.293 2171.92 176.318 2159.88 170.621C2147.83 164.924 2134.24 162.076 2119.1 162.076C2102.99 162.076 2088.42 164.924 2075.4 170.621C2062.38 176.318 2051.31 184.212 2042.2 194.303C2033.25 204.394 2026.33 216.52 2021.45 230.68C2016.56 244.677 2014.12 259.977 2014.12 276.578C2014.12 293.342 2016.56 308.723 2021.45 322.721C2026.33 336.718 2033.25 348.844 2042.2 359.098C2051.31 369.189 2062.38 377.083 2075.4 382.779C2088.42 388.313 2102.99 391.08 2119.1 391.08ZM2127.65 152.066C2147.34 152.066 2164.84 155.077 2180.14 161.1C2195.6 167.122 2208.62 175.667 2219.2 186.734C2229.78 197.639 2237.84 210.742 2243.37 226.041C2248.9 241.34 2251.67 258.186 2251.67 276.578C2251.67 294.807 2248.9 311.572 2243.37 326.871C2237.84 342.171 2229.78 355.354 2219.2 366.422C2208.78 377.327 2195.85 385.79 2180.38 391.812C2164.92 397.997 2147.34 401.09 2127.65 401.09C2108.12 401.09 2090.62 397.997 2075.16 391.812C2059.86 385.79 2046.92 377.327 2036.34 366.422C2025.92 355.354 2017.95 342.252 2012.41 327.115C2006.88 311.816 2004.11 294.97 2004.11 276.578C2004.11 258.186 2006.88 241.34 2012.41 226.041C2017.95 210.742 2026 197.639 2036.58 186.734C2047.16 175.667 2060.1 167.122 2075.4 161.1C2090.7 155.077 2108.12 152.066 2127.65 152.066ZM2092.25 276.578C2092.25 329.15 2104.05 358.284 2127.65 363.98C2151.74 358.284 2163.78 329.15 2163.78 276.578C2163.78 224.495 2151.74 195.279 2127.65 188.932C2104.05 195.279 2092.25 224.495 2092.25 276.578Z" fill="#BDA28F"/>
</svg>
