<svg width="503" height="503" viewBox="0 0 503 503" fill="none" xmlns="http://www.w3.org/2000/svg">
<g filter="url(#filter0_ii_141_49)">
<ellipse cx="251.137" cy="251.244" rx="250" ry="25" fill="#BDA28F"/>
<ellipse cx="251.135" cy="251.244" rx="250" ry="25" transform="rotate(-4 251.135 251.244)" fill="#BDA28F"/>
<ellipse cx="251.134" cy="251.244" rx="250" ry="25" transform="rotate(-8 251.134 251.244)" fill="#BDA28F"/>
<ellipse cx="251.135" cy="251.244" rx="250" ry="25" transform="rotate(-12 251.135 251.244)" fill="#BDA28F"/>
<ellipse cx="251.136" cy="251.244" rx="250" ry="25" transform="rotate(-16 251.136 251.244)" fill="#BDA28F"/>
<ellipse cx="251.136" cy="251.244" rx="250" ry="25" transform="rotate(-20 251.136 251.244)" fill="#BDA28F"/>
<ellipse cx="251.137" cy="251.244" rx="250" ry="25" transform="rotate(-24 251.137 251.244)" fill="#BDA28F"/>
<ellipse cx="251.136" cy="251.244" rx="250" ry="25" transform="rotate(-28 251.136 251.244)" fill="#BDA28F"/>
<ellipse cx="251.137" cy="251.244" rx="250" ry="25" transform="rotate(-32 251.137 251.244)" fill="#BDA28F"/>
<ellipse cx="251.138" cy="251.244" rx="250" ry="25" transform="rotate(-36 251.138 251.244)" fill="#BDA28F"/>
<ellipse cx="251.137" cy="251.244" rx="250" ry="25" transform="rotate(-40 251.137 251.244)" fill="#BDA28F"/>
<ellipse cx="251.137" cy="251.244" rx="250" ry="25" transform="rotate(-44 251.137 251.244)" fill="#BDA28F"/>
<ellipse cx="251.137" cy="251.244" rx="250" ry="25" transform="rotate(-48 251.137 251.244)" fill="#BDA28F"/>
<ellipse cx="251.135" cy="251.244" rx="250" ry="25" transform="rotate(-52 251.135 251.244)" fill="#BDA28F"/>
<ellipse cx="251.135" cy="251.244" rx="250" ry="25" transform="rotate(-56 251.135 251.244)" fill="#BDA28F"/>
<ellipse cx="251.135" cy="251.245" rx="250" ry="25" transform="rotate(-60 251.135 251.245)" fill="#BDA28F"/>
<ellipse cx="251.135" cy="251.244" rx="250" ry="25" transform="rotate(-64 251.135 251.244)" fill="#BDA28F"/>
<ellipse cx="251.136" cy="251.244" rx="250" ry="25" transform="rotate(-68 251.136 251.244)" fill="#BDA28F"/>
<ellipse cx="251.136" cy="251.244" rx="250" ry="25" transform="rotate(-72 251.136 251.244)" fill="#BDA28F"/>
<ellipse cx="251.136" cy="251.244" rx="250" ry="25" transform="rotate(-76 251.136 251.244)" fill="#BDA28F"/>
<ellipse cx="251.138" cy="251.244" rx="250" ry="25" transform="rotate(-80 251.138 251.244)" fill="#BDA28F"/>
<ellipse cx="251.138" cy="251.244" rx="250" ry="25" transform="rotate(-84 251.138 251.244)" fill="#BDA28F"/>
<ellipse cx="251.139" cy="251.244" rx="250" ry="25" transform="rotate(-88 251.139 251.244)" fill="#BDA28F"/>
<ellipse cx="251.139" cy="251.244" rx="250" ry="25" transform="rotate(-92 251.139 251.244)" fill="#BDA28F"/>
<ellipse cx="251.139" cy="251.244" rx="250" ry="25" transform="rotate(-96 251.139 251.244)" fill="#BDA28F"/>
<ellipse cx="251.14" cy="251.244" rx="250" ry="25" transform="rotate(-100 251.14 251.244)" fill="#BDA28F"/>
<ellipse cx="251.14" cy="251.244" rx="250" ry="25" transform="rotate(-104 251.14 251.244)" fill="#BDA28F"/>
<ellipse cx="251.141" cy="251.244" rx="250" ry="25" transform="rotate(-108 251.141 251.244)" fill="#BDA28F"/>
<ellipse cx="251.139" cy="251.244" rx="250" ry="25" transform="rotate(-112 251.139 251.244)" fill="#BDA28F"/>
<ellipse cx="251.141" cy="251.244" rx="250" ry="25" transform="rotate(-116 251.141 251.244)" fill="#BDA28F"/>
<ellipse cx="251.141" cy="251.244" rx="250" ry="25" transform="rotate(-120 251.141 251.244)" fill="#BDA28F"/>
<ellipse cx="251.143" cy="251.244" rx="250" ry="25" transform="rotate(-124 251.143 251.244)" fill="#BDA28F"/>
<ellipse cx="251.142" cy="251.244" rx="250" ry="25" transform="rotate(-128 251.142 251.244)" fill="#BDA28F"/>
<ellipse cx="251.144" cy="251.244" rx="250" ry="25" transform="rotate(-132 251.144 251.244)" fill="#BDA28F"/>
<ellipse cx="251.143" cy="251.244" rx="250" ry="25" transform="rotate(-136 251.143 251.244)" fill="#BDA28F"/>
<ellipse cx="251.143" cy="251.244" rx="250" ry="25" transform="rotate(-140 251.143 251.244)" fill="#BDA28F"/>
<ellipse cx="251.144" cy="251.244" rx="250" ry="25" transform="rotate(-144 251.144 251.244)" fill="#BDA28F"/>
<ellipse cx="251.144" cy="251.244" rx="250" ry="25" transform="rotate(-148 251.144 251.244)" fill="#BDA28F"/>
<ellipse cx="251.144" cy="251.244" rx="250" ry="25" transform="rotate(-152 251.144 251.244)" fill="#BDA28F"/>
<ellipse cx="251.145" cy="251.244" rx="250" ry="25" transform="rotate(-156 251.145 251.244)" fill="#BDA28F"/>
<ellipse cx="251.145" cy="251.244" rx="250" ry="25" transform="rotate(-160 251.145 251.244)" fill="#BDA28F"/>
<ellipse cx="251.146" cy="251.244" rx="250" ry="25" transform="rotate(-164 251.146 251.244)" fill="#BDA28F"/>
<ellipse cx="251.145" cy="251.244" rx="250" ry="25" transform="rotate(-168 251.145 251.244)" fill="#BDA28F"/>
<ellipse cx="251.145" cy="251.244" rx="250" ry="25" transform="rotate(-172 251.145 251.244)" fill="#BDA28F"/>
<ellipse cx="251.144" cy="251.244" rx="250" ry="25" transform="rotate(-176 251.144 251.244)" fill="#BDA28F"/>
</g>
<defs>
<filter id="filter0_ii_141_49" x="1.13672" y="-2.60571" width="500" height="507.698" filterUnits="userSpaceOnUse" color-interpolation-filters="sRGB">
<feFlood flood-opacity="0" result="BackgroundImageFix"/>
<feBlend mode="normal" in="SourceGraphic" in2="BackgroundImageFix" result="shape"/>
<feColorMatrix in="SourceAlpha" type="matrix" values="0 0 0 0 0 0 0 0 0 0 0 0 0 0 0 0 0 0 127 0" result="hardAlpha"/>
<feOffset dy="4"/>
<feGaussianBlur stdDeviation="2"/>
<feComposite in2="hardAlpha" operator="arithmetic" k2="-1" k3="1"/>
<feColorMatrix type="matrix" values="0 0 0 0 0 0 0 0 0 0 0 0 0 0 0 0 0 0 0.25 0"/>
<feBlend mode="normal" in2="shape" result="effect1_innerShadow_141_49"/>
<feColorMatrix in="SourceAlpha" type="matrix" values="0 0 0 0 0 0 0 0 0 0 0 0 0 0 0 0 0 0 127 0" result="hardAlpha"/>
<feOffset dy="-4"/>
<feGaussianBlur stdDeviation="2"/>
<feComposite in2="hardAlpha" operator="arithmetic" k2="-1" k3="1"/>
<feColorMatrix type="matrix" values="0 0 0 0 0 0 0 0 0 0 0 0 0 0 0 0 0 0 0.25 0"/>
<feBlend mode="normal" in2="effect1_innerShadow_141_49" result="effect2_innerShadow_141_49"/>
</filter>
</defs>
</svg>
